# xmcd
#
# Track frame offsets: 
#        150
#        4785
#        20168
#        39299
#        66371
#
# Disc length: 1290 seconds
#
# Revision: 0
# Processed by: cddbd v1.5.2PL0 Copyright (c) Steve Scherf et al.
# Submitted via: ExactAudioCopy v0.95b4
#
DISCID=39050805
DTITLE=Fallen Joy - Order To Die
DYEAR=2010
DGENRE=Melodic Death Metal
TTITLE0=Morituri Te Salutant
TTITLE1=Order To Die
TTITLE2=Hoisting The Black Flag
TTITLE3=Seeds Of Tyranny
TTITLE4=Voyage Au Bout De La Nuit
EXTD=
EXTT0=
EXTT1=
EXTT2=
EXTT3=
EXTT4=
PLAYORDER=
